<svg width="111" height="48" viewBox="0 0 111 48" fill="none" xmlns="http://www.w3.org/2000/svg">
<g clip-path="url(#clip0_150_89)">
<path fill-rule="evenodd" clip-rule="evenodd" d="M24.25 15C24.25 13.4812 25.4812 12.25 27 12.25C28.5188 12.25 29.75 13.4812 29.75 15V20C29.75 21.5188 28.5188 22.75 27 22.75C25.4812 22.75 24.25 21.5188 24.25 20V15ZM27 13.75C26.3096 13.75 25.75 14.3096 25.75 15V20C25.75 20.6904 26.3096 21.25 27 21.25C27.6904 21.25 28.25 20.6904 28.25 20V15C28.25 14.3096 27.6904 13.75 27 13.75Z" fill="white"/>
<path fill-rule="evenodd" clip-rule="evenodd" d="M20 18.25C21.5188 18.25 22.75 19.4812 22.75 21C22.75 22.5188 21.5188 23.75 20 23.75L15 23.75C13.4812 23.75 12.25 22.5188 12.25 21C12.25 19.4812 13.4812 18.25 15 18.25L20 18.25ZM21.25 21C21.25 20.3096 20.6904 19.75 20 19.75L15 19.75C14.3096 19.75 13.75 20.3096 13.75 21C13.75 21.6904 14.3096 22.25 15 22.25L20 22.25C20.6904 22.25 21.25 21.6904 21.25 21Z" fill="white"/>
<path fill-rule="evenodd" clip-rule="evenodd" d="M33 24.25C34.5188 24.25 35.75 25.4812 35.75 27C35.75 28.5188 34.5188 29.75 33 29.75L28 29.75C26.4812 29.75 25.25 28.5188 25.25 27C25.25 25.4812 26.4812 24.25 28 24.25L33 24.25ZM34.25 27C34.25 26.3096 33.6904 25.75 33 25.75L28 25.75C27.3096 25.75 26.75 26.3096 26.75 27C26.75 27.6904 27.3096 28.25 28 28.25L33 28.25C33.6904 28.25 34.25 27.6904 34.25 27Z" fill="white"/>
<path fill-rule="evenodd" clip-rule="evenodd" d="M23.75 33C23.75 34.5188 22.5188 35.75 21 35.75C19.4812 35.75 18.25 34.5188 18.25 33L18.25 28C18.25 26.4812 19.4812 25.25 21 25.25C22.5188 25.25 23.75 26.4812 23.75 28L23.75 33ZM21 34.25C21.6904 34.25 22.25 33.6904 22.25 33L22.25 28C22.25 27.3096 21.6904 26.75 21 26.75C20.3096 26.75 19.75 27.3096 19.75 28L19.75 33C19.75 33.6904 20.3096 34.25 21 34.25Z" fill="white"/>
<path fill-rule="evenodd" clip-rule="evenodd" d="M20.5 13.75C20.0858 13.75 19.75 14.0858 19.75 14.5C19.75 14.9142 20.0858 15.25 20.5 15.25C20.9142 15.25 21.25 14.9142 21.25 14.5C21.25 14.0858 20.9142 13.75 20.5 13.75ZM18.25 14.5C18.25 13.2574 19.2574 12.25 20.5 12.25C21.7426 12.25 22.75 13.2574 22.75 14.5C22.75 15.7426 21.7426 16.75 20.5 16.75C19.2574 16.75 18.25 15.7426 18.25 14.5Z" fill="white"/>
<path fill-rule="evenodd" clip-rule="evenodd" d="M33.5 19.75C33.0858 19.75 32.75 20.0858 32.75 20.5C32.75 20.9142 33.0858 21.25 33.5 21.25C33.9142 21.25 34.25 20.9142 34.25 20.5C34.25 20.0858 33.9142 19.75 33.5 19.75ZM31.25 20.5C31.25 19.2574 32.2574 18.25 33.5 18.25C34.7426 18.25 35.75 19.2574 35.75 20.5C35.75 21.7426 34.7426 22.75 33.5 22.75C32.2574 22.75 31.25 21.7426 31.25 20.5Z" fill="white"/>
<path fill-rule="evenodd" clip-rule="evenodd" d="M27.5 32.75C27.0858 32.75 26.75 33.0858 26.75 33.5C26.75 33.9142 27.0858 34.25 27.5 34.25C27.9142 34.25 28.25 33.9142 28.25 33.5C28.25 33.0858 27.9142 32.75 27.5 32.75ZM25.25 33.5C25.25 32.2574 26.2574 31.25 27.5 31.25C28.7426 31.25 29.75 32.2574 29.75 33.5C29.75 34.7426 28.7426 35.75 27.5 35.75C26.2574 35.75 25.25 34.7426 25.25 33.5Z" fill="white"/>
<path fill-rule="evenodd" clip-rule="evenodd" d="M14.5 26.75C14.0858 26.75 13.75 27.0858 13.75 27.5C13.75 27.9142 14.0858 28.25 14.5 28.25C14.9142 28.25 15.25 27.9142 15.25 27.5C15.25 27.0858 14.9142 26.75 14.5 26.75ZM12.25 27.5C12.25 26.2574 13.2574 25.25 14.5 25.25C15.7426 25.25 16.75 26.2574 16.75 27.5C16.75 28.7426 15.7426 29.75 14.5 29.75C13.2574 29.75 12.25 28.7426 12.25 27.5Z" fill="white"/>
</g>
<path d="M41.0391 18.2266H45.2656C46.3594 18.2266 47.25 18.5703 47.9375 19.2578C48.6302 19.9453 48.9766 20.8359 48.9766 21.9297C48.9766 23.0286 48.625 23.9245 47.9219 24.6172C47.224 25.3047 46.3203 25.6484 45.2109 25.6484H42.7891V29.5H41.0391V18.2266ZM42.7891 19.7031V24.1797H44.7969C45.5573 24.1797 46.1458 23.9844 46.5625 23.5938C46.9792 23.2031 47.1875 22.651 47.1875 21.9375C47.1875 21.2292 46.9792 20.6797 46.5625 20.2891C46.151 19.8984 45.5651 19.7031 44.8047 19.7031H42.7891ZM56.6325 28.5156C55.9242 29.276 54.9789 29.6562 53.7966 29.6562C52.6143 29.6562 51.669 29.276 50.9606 28.5156C50.2523 27.75 49.8981 26.7083 49.8981 25.3906C49.8981 24.0781 50.2523 23.0417 50.9606 22.2812C51.669 21.5156 52.6143 21.1328 53.7966 21.1328C54.9789 21.1328 55.9242 21.5156 56.6325 22.2812C57.3408 23.0417 57.695 24.0781 57.695 25.3906C57.695 26.7083 57.3408 27.75 56.6325 28.5156ZM53.7966 28.2656C54.4684 28.2656 54.9997 28.013 55.3903 27.5078C55.7809 27.0026 55.9762 26.2969 55.9762 25.3906C55.9762 24.4896 55.7783 23.7865 55.3825 23.2812C54.9919 22.776 54.4632 22.5234 53.7966 22.5234C53.1299 22.5234 52.5986 22.776 52.2028 23.2812C51.8122 23.7865 51.6169 24.4896 51.6169 25.3906C51.6169 26.2969 51.8122 27.0026 52.2028 27.5078C52.5986 28.013 53.1299 28.2656 53.7966 28.2656ZM59.1712 23.6094C59.1712 22.875 59.4681 22.2786 60.0619 21.8203C60.6556 21.362 61.4317 21.1328 62.39 21.1328C63.3015 21.1328 64.0489 21.3646 64.6322 21.8281C65.2207 22.2865 65.528 22.8828 65.5541 23.6172H63.9681C63.9265 23.2422 63.7624 22.9479 63.4759 22.7344C63.1895 22.5208 62.8119 22.4141 62.3431 22.4141C61.8848 22.4141 61.515 22.5156 61.2337 22.7188C60.9577 22.9219 60.8197 23.1849 60.8197 23.5078C60.8197 24.0078 61.239 24.362 62.0775 24.5703L63.4603 24.8906C64.2884 25.0885 64.8744 25.3594 65.2181 25.7031C65.5671 26.0417 65.7416 26.5156 65.7416 27.125C65.7416 27.875 65.4239 28.4844 64.7884 28.9531C64.1582 29.4219 63.3379 29.6562 62.3275 29.6562C61.364 29.6562 60.5775 29.4271 59.9681 28.9688C59.364 28.5104 59.028 27.901 58.9603 27.1406H60.6322C60.6999 27.5365 60.8848 27.8411 61.1869 28.0547C61.489 28.263 61.8952 28.3672 62.4056 28.3672C62.9108 28.3672 63.3093 28.2708 63.6009 28.0781C63.8978 27.8802 64.0462 27.6146 64.0462 27.2812C64.0462 27.0156 63.9577 26.8047 63.7806 26.6484C63.6035 26.4922 63.3015 26.3594 62.8744 26.25L61.4056 25.8906C59.916 25.5312 59.1712 24.7708 59.1712 23.6094ZM67.8662 19.3359H69.5616V21.2812H71.1241V22.6172H69.5616V27.1484C69.5616 27.5026 69.6423 27.763 69.8037 27.9297C69.9652 28.0964 70.2178 28.1797 70.5616 28.1797C70.8116 28.1797 70.9965 28.1667 71.1162 28.1406V29.4766C70.9079 29.5286 70.5954 29.5547 70.1787 29.5547C69.3506 29.5547 68.7569 29.3854 68.3975 29.0469C68.0433 28.7031 67.8662 28.1328 67.8662 27.3359V22.6172H66.6709V21.2812H67.8662V19.3359ZM72.2956 26.6094H74.0144C74.0248 27.0781 74.1836 27.4583 74.4909 27.75C74.8034 28.0417 75.2045 28.1875 75.6941 28.1875C76.267 28.1875 76.7045 28.0208 77.0066 27.6875C77.3139 27.349 77.4675 26.8568 77.4675 26.2109V18.2266H79.2175V26.2188C79.2175 27.3333 78.9076 28.2005 78.2878 28.8203C77.668 29.4401 76.8086 29.75 75.7097 29.75C74.6941 29.75 73.8711 29.4609 73.2409 28.8828C72.6107 28.3047 72.2956 27.5469 72.2956 26.6094ZM87.8031 28.5156C87.0948 29.276 86.1495 29.6562 84.9672 29.6562C83.7849 29.6562 82.8396 29.276 82.1312 28.5156C81.4229 27.75 81.0687 26.7083 81.0687 25.3906C81.0687 24.0781 81.4229 23.0417 82.1312 22.2812C82.8396 21.5156 83.7849 21.1328 84.9672 21.1328C86.1495 21.1328 87.0948 21.5156 87.8031 22.2812C88.5115 23.0417 88.8656 24.0781 88.8656 25.3906C88.8656 26.7083 88.5115 27.75 87.8031 28.5156ZM84.9672 28.2656C85.6391 28.2656 86.1703 28.013 86.5609 27.5078C86.9516 27.0026 87.1469 26.2969 87.1469 25.3906C87.1469 24.4896 86.949 23.7865 86.5531 23.2812C86.1625 22.776 85.6339 22.5234 84.9672 22.5234C84.3005 22.5234 83.7693 22.776 83.3734 23.2812C82.9828 23.7865 82.7875 24.4896 82.7875 25.3906C82.7875 26.2969 82.9828 27.0026 83.3734 27.5078C83.7693 28.013 84.3005 28.2656 84.9672 28.2656ZM94.8653 29.6406C94.2716 29.6406 93.7481 29.5052 93.295 29.2344C92.8419 28.9635 92.4851 28.5859 92.2247 28.1016H92.1934V29.5H90.5528V18.2266H92.2403V22.6797H92.2794C92.5294 22.2005 92.8783 21.8255 93.3262 21.5547C93.7794 21.2839 94.295 21.1484 94.8731 21.1484C95.9096 21.1484 96.7377 21.5312 97.3575 22.2969C97.9825 23.0625 98.295 24.0938 98.295 25.3906C98.295 26.6927 97.9851 27.7266 97.3653 28.4922C96.7455 29.2578 95.9122 29.6406 94.8653 29.6406ZM94.4122 22.5703C93.7664 22.5703 93.2403 22.8307 92.8341 23.3516C92.433 23.8672 92.2325 24.5469 92.2325 25.3906C92.2325 26.2396 92.433 26.9219 92.8341 27.4375C93.2403 27.9531 93.7664 28.2109 94.4122 28.2109C95.0736 28.2109 95.5971 27.9583 95.9825 27.4531C96.3679 26.9479 96.5606 26.2604 96.5606 25.3906C96.5606 24.526 96.3679 23.8411 95.9825 23.3359C95.5971 22.8255 95.0736 22.5703 94.4122 22.5703Z" fill="white"/>
<defs>
<clipPath id="clip0_150_89">
<rect width="24" height="24" fill="white" transform="translate(12 12)"/>
</clipPath>
</defs>
</svg>
