<svg width="25" height="24" viewBox="0 0 25 24" fill="none" xmlns="http://www.w3.org/2000/svg">
<path d="M12.5 14C13.6046 14 14.5 13.1046 14.5 12C14.5 10.8954 13.6046 10 12.5 10C11.3954 10 10.5 10.8954 10.5 12C10.5 13.1046 11.3954 14 12.5 14Z" stroke="#6DE754" stroke-width="2" stroke-linecap="round" stroke-linejoin="round"/>
<path d="M16.74 7.75999C17.2979 8.31723 17.7404 8.97896 18.0424 9.70735C18.3443 10.4357 18.4997 11.2165 18.4997 12.005C18.4997 12.7935 18.3443 13.5742 18.0424 14.3026C17.7404 15.031 17.2979 15.6928 16.74 16.25M8.26 16.24C7.70214 15.6828 7.25959 15.021 6.95764 14.2926C6.6557 13.5642 6.50028 12.7835 6.50028 11.995C6.50028 11.2065 6.6557 10.4257 6.95764 9.69735C7.25959 8.96896 7.70214 8.30723 8.26 7.74999M19.57 4.92999C21.4447 6.80527 22.4979 9.34835 22.4979 12C22.4979 14.6516 21.4447 17.1947 19.57 19.07M5.43 19.07C3.55529 17.1947 2.50214 14.6516 2.50214 12C2.50214 9.34835 3.55529 6.80527 5.43 4.92999" stroke="#6DE754" stroke-width="2" stroke-linecap="round" stroke-linejoin="round"/>
</svg>
